PathFileType   4   (X/Y/Z)
DataRate	CameraRate	NumFrames	NumMarkers	Units	OrigDataRate	OrigDataStartFrame	OrigNumFrames
120.0	120.0	7	37	mm	120.0	163	186
Frame#	Time	midhip	hip_r	hip_l	knee_r	knee_l	ankle_r	ankle_l	midasis	asis_r	asis_l	psis_r	psis_l	epicondLat_r	epicondLat_l	epicondMed_r	epicondMed_l	malleolusLat_r	malleolusLat_l	malleolusMedv_r	malleolusMedv_l	neck	subclavicle_r	subclavicle_l	sternalnotch	xyphoidprocess	thighwand_r	thighwand_l	upperleg1_r	upperleg1_l	upperleg2_r	upperleg2_l	shankwand_r	shankwand_l	lowerleg1_r	lowerleg1_l	toe_r	toe_l
 	 	X1	Y1	Z1	X2	Y2	Z2	X3	Y3	Z3	X4	Y4	Z4	X5	Y5	Z5	X6	Y6	Z6	X7	Y7	Z7	X8	Y8	Z8	X9	Y9	Z9	X10	Y10	Z10	X11	Y11	Z11	X12	Y12	Z12	X13	Y13	Z13	X14	Y14	Z14	X15	Y15	Z15	X16	Y16	Z16	X17	Y17	Z17	X18	Y18	Z18	X19	Y19	Z19	X20	Y20	Z20	X21	Y21	Z21	X22	Y22	Z22	X23	Y23	Z23	X24	Y24	Z24	X25	Y25	Z25	X26	Y26	Z26	X27	Y27	Z27	X28	Y28	Z28	X29	Y29	Z29	X30	Y30	Z30	X31	Y31	Z31	X32	Y32	Z32	X33	Y33	Z33	X34	Y34	Z34	X35	Y35	Z35	X36	Y36	Z36	X37	Y37	Z37

	163	1.77500	2040.806	891.674	-233.364	2042.175	868.735	-165.597	2035.878	876.108	-315.713	2044.149	464.842	-184.833	2191.606	477.430	-318.903	1957.563	67.458	-215.680	2238.763	85.389	-320.374	2126.349	958.391	-240.096	2131.314	952.578	-121.734	2121.384	964.204	-358.457	1940.436	1000.129	-197.028	1942.047	999.813	-283.336	2058.169	462.208	-128.099	2192.676	478.312	-376.886	2012.735	470.294	-237.099	2184.549	450.142	-267.520	1952.903	65.394	-176.006	2217.687	82.977	-353.101	1965.426	81.289	-244.391	2240.917	101.008	-293.054	1962.340	1426.413	-211.460	2085.898	1339.345	-168.625	2090.989	1346.245	-273.192	2071.811	1351.574	-218.161	2142.162	1183.553	-237.661	2109.891	556.794	-54.148	2300.923	600.566	-329.142	2113.614	626.670	-113.353	2215.750	626.371	-365.046	2106.220	542.621	-145.803	2224.398	538.381	-362.425	2016.217	180.844	-84.825	2215.810	223.543	-437.100	1986.114	158.371	-156.776	2210.527	183.724	-365.726	2080.476	38.818	-206.344	2355.705	72.683	-337.203
	164	1.78333	2044.582	891.683	-233.431	2045.311	868.386	-165.622	2039.337	875.659	-315.756	2045.577	464.495	-184.841	2195.021	476.969	-319.128	1957.528	67.361	-215.720	2251.148	86.105	-320.119	2129.695	957.941	-240.003	2134.404	952.209	-121.682	2124.987	963.673	-358.324	1943.771	999.819	-197.293	1945.509	999.420	-283.561	2059.605	461.804	-128.112	2195.941	477.819	-377.115	2012.891	470.481	-236.232	2188.266	449.678	-266.799	1952.909	65.300	-176.041	2230.267	83.190	-352.929	1965.590	81.208	-244.355	2252.589	101.799	-292.754	1965.947	1426.067	-211.706	2089.501	1339.267	-168.881	2094.265	1345.743	-273.341	2075.501	1351.195	-218.427	2145.560	1183.201	-237.397	2111.786	556.318	-54.109	2303.698	599.822	-329.668	2116.200	626.197	-113.514	2217.995	625.168	-365.628	2107.617	541.937	-145.643	2227.202	537.790	-362.441	2016.785	180.517	-84.772	2225.504	223.669	-437.072	1986.187	158.253	-156.839	2219.894	184.492	-366.035	2080.323	38.776	-206.306	2368.528	74.633	-336.378
	165	1.79167	2048.297	891.707	-233.586	2048.476	868.030	-165.634	2042.809	875.190	-315.786	2047.033	464.198	-184.857	2198.405	476.516	-319.341	1957.599	67.311	-215.752	2263.032	86.913	-319.948	2133.082	957.458	-239.917	2137.547	951.818	-121.620	2128.618	963.099	-358.213	1947.124	999.533	-197.624	1948.972	999.046	-283.859	2061.077	461.447	-128.134	2199.182	477.336	-377.330	2013.769	470.179	-235.446	2192.150	448.814	-267.016	1952.977	65.264	-176.073	2242.326	83.530	-352.823	1965.762	81.149	-244.389	2264.288	102.706	-292.817	1969.679	1425.676	-211.809	2093.166	1338.762	-168.945	2097.857	1344.792	-273.752	2079.265	1350.855	-218.728	2148.829	1182.288	-236.993	2113.734	555.842	-54.067	2306.452	599.029	-330.156	2119.064	625.585	-113.901	2220.763	624.428	-365.888	2109.411	541.057	-145.460	2230.457	537.181	-362.714	2017.277	180.235	-84.726	2234.769	223.902	-437.101	1986.185	158.378	-156.897	2229.182	184.493	-366.348	2080.181	38.723	-206.280	2380.838	76.545	-335.718
	166	1.80000	2051.920	891.668	-233.788	2051.671	867.674	-165.631	2046.280	874.704	-315.799	2048.535	463.960	-184.873	2201.771	476.060	-319.556	1957.771	67.315	-215.774	2274.382	87.777	-319.861	2136.505	956.945	-239.842	2140.751	951.406	-121.549	2132.258	962.483	-358.135	1950.503	999.273	-198.014	1952.489	998.688	-284.209	2062.594	461.147	-128.158	2202.423	476.861	-377.547	2015.783	470.570	-236.051	2195.314	448.064	-267.306	1953.104	65.292	-176.099	2253.819	83.958	-352.779	1965.997	81.139	-244.447	2275.711	103.516	-292.957	1973.475	1425.262	-211.977	2096.917	1337.955	-169.299	2102.010	1344.329	-273.923	2083.087	1350.515	-219.033	2152.668	1181.649	-237.597	2115.727	555.378	-54.015	2309.199	598.208	-330.590	2121.808	625.032	-114.030	2223.718	623.914	-366.088	2111.646	540.708	-145.656	2233.495	536.366	-362.974	2017.702	179.990	-84.685	2243.546	224.224	-437.181	1986.212	158.589	-157.046	2239.270	184.805	-366.202	2080.060	38.670	-206.261	2392.610	78.427	-335.214
	167	1.80833	2055.266	891.345	-234.016	2054.895	867.319	-165.613	2049.742	874.203	-315.796	2050.094	463.775	-184.884	2205.117	475.587	-319.787	1958.019	67.372	-215.783	2285.176	88.666	-319.847	2139.961	956.401	-239.786	2144.020	950.977	-121.473	2135.901	961.824	-358.098	1953.923	999.033	-198.450	1956.127	998.333	-284.588	2064.163	460.899	-128.174	2205.668	476.382	-377.779	2017.255	471.380	-236.874	2198.096	447.177	-267.876	1953.278	65.381	-176.115	2264.719	84.439	-352.781	1966.157	81.218	-244.510	2286.325	104.452	-292.918	1977.242	1425.044	-212.517	2100.936	1337.744	-169.759	2106.216	1344.360	-274.025	2086.970	1350.149	-219.331	2157.113	1181.698	-238.153	2117.757	554.938	-53.956	2311.955	597.384	-330.963	2124.190	624.541	-114.166	2226.746	623.266	-366.184	2113.551	540.611	-146.123	2236.343	535.663	-363.337	2018.081	179.768	-84.646	2251.798	224.604	-437.304	1986.302	158.641	-157.119	2249.298	185.920	-366.254	2079.968	38.624	-206.247	2403.820	80.275	-334.842
	168	1.81667	2058.434	890.744	-234.077	2058.136	866.961	-165.607	2053.203	873.686	-315.805	2051.704	463.617	-184.883	2208.433	475.086	-320.044	1958.316	67.468	-215.779	2295.405	89.557	-319.880	2143.445	955.827	-239.761	2147.331	950.528	-121.412	2139.558	961.125	-358.110	1957.405	998.799	-198.923	1959.931	997.965	-284.977	2065.778	460.683	-128.177	2208.915	475.890	-378.036	2019.147	470.539	-236.391	2200.730	445.987	-268.578	1953.484	65.514	-176.120	2275.011	84.942	-352.801	1966.194	81.452	-244.542	2296.128	105.822	-293.032	1981.178	1424.672	-213.200	2104.954	1338.034	-170.306	2110.139	1344.153	-274.529	2090.904	1349.779	-219.663	2161.483	1181.801	-237.945	2119.808	554.530	-53.904	2314.744	596.582	-331.278	2126.254	624.209	-114.469	2229.744	622.409	-366.158	2115.547	540.134	-146.034	2239.080	534.790	-363.713	2018.442	179.552	-84.605	2259.504	224.999	-437.455	1986.404	158.646	-156.926	2258.422	186.303	-366.491	2079.907	38.589	-206.236	2414.444	82.072	-334.583
	169	1.82500	2062.237	890.522	-233.732	2061.405	866.587	-165.641	2056.692	873.149	-315.854	2053.348	463.458	-184.866	2211.710	474.553	-320.325	1958.629	67.583	-215.764	2305.059	90.424	-319.934	2146.970	955.220	-239.778	2150.685	950.048	-121.381	2143.255	960.392	-358.175	1960.969	998.548	-199.417	1963.907	997.568	-285.369	2067.424	460.472	-128.163	2212.155	475.376	-378.318	2021.760	468.942	-235.798	2203.475	444.488	-269.202	1953.704	65.667	-176.114	2284.687	85.439	-352.814	1966.426	81.754	-244.523	2305.701	106.988	-293.253	1985.036	1424.317	-213.723	2108.953	1337.772	-170.531	2113.989	1343.596	-274.684	2094.862	1349.420	-220.027	2165.430	1181.363	-237.763	2121.871	554.146	-53.868	2317.588	595.813	-331.544	2127.917	623.960	-114.590	2232.730	621.338	-365.913	2117.719	539.483	-145.826	2241.806	533.700	-363.972	2018.809	179.329	-84.553	2266.666	225.359	-437.613	1986.583	158.761	-156.722	2266.291	186.108	-366.449	2079.875	38.562	-206.226	2424.460	83.786	-334.420
